# AST/ASF file generated using VICON BodyLanguage
# -----------------------------------------------
:version 1.10
:name VICON
:units
  mass 1.0
  length 0.45
  angle deg
:documentation
   .ast/.asf automatically generated from VICON data using
   VICON BodyBuilder and BodyLanguage model FoxedUp or BRILLIANT.MOD
:root
   order TX TY TZ RX RY RZ
   axis XYZ
   position 0 0 0  
   orientation 0 0 0 
:bonedata
  begin
     id 1 
     name lhipjoint
     direction 0.62366 -0.717238 0.310833 
     length 2.53602 
     axis 0 0 0  XYZ
  end
  begin
     id 2 
     name lfemur
     direction 0.34202 -0.939693 0  
     length 7.40817  
     axis 0 0 20  XYZ
    dof rx ry rz
    limits (-160.0 20.0)
           (-70.0 70.0)
           (-60.0 70.0)
  end
  begin
     id 3 
     name ltibia
     direction 0.34202 -0.939693 0   
     length 7.7045   
     axis 0 0 20   XYZ
    dof rx
    limits (-10.0 170.0)
  end
  begin
     id 4 
     name lfoot
     direction 0.0673888 -0.185149 0.980397   
     length 2.09456   
     axis -90 7.62852e-016 20   XYZ
    dof rx rz
    limits (-45.0 90.0)
           (-70.0 20.0)
  end
  begin
     id 5 
     name ltoes
     direction 1.53575e-011 -4.21994e-011 1   
     length 1.05543   
     axis -90 7.62852e-016 20   XYZ
    dof rx
    limits (-90.0 20.0)
  end
  begin
     id 6 
     name rhipjoint
     direction -0.489018 -0.800347 0.346851   
     length 2.27268  
     axis 0 0 0  XYZ 
  end
  begin
     id 7 
     name rfemur
     direction -0.34202 -0.939693 0   
     length 7.55487   
     axis 0 0 -20   XYZ
    dof rx ry rz
    limits (-160.0 20.0)
           (-70.0 70.0)
           (-70.0 60.0)
  end
  begin
     id 8 
     name rtibia
     direction -0.34202 -0.939693 0   
     length 7.78969   
     axis 0 0 -20   XYZ
    dof rx
    limits (-10.0 170.0)
 end
 begin
     id 9 
     name rfoot
     direction -0.0859318 -0.236096 0.967923   
     length 2.19143  
     axis -90 -7.62852e-016 -20   XYZ
    dof rx rz
    limits (-45.0 90.0)
           (-20.0 70.0)
  end
  begin
     id 10 
     name rtoes
     direction -1.53538e-011 -4.21989e-011 1   
     length 1.09845   
     axis -90 -7.62852e-016 -20   XYZ
    dof rx
    limits (-90.0 20.0)
  end
  begin
     id 11 
     name lowerback
     direction -0.00762546 0.998978 -0.0445553   
     length 1.98161   
     axis 0 0 0   XYZ
    dof rx ry rz
    limits (-20.0 45.0)
           (-30.0 30.0)
           (-30.0 30.0)
  end
  begin
     id 12 
     name upperback
     direction 0.0422361 0.998867 -0.0219156   
     length 1.97558   
     axis 0 0 0   XYZ
    dof rx ry rz
    limits (-20.0 45.0)
           (-30.0 30.0)
           (-30.0 30.0)
  end
  begin
     id 13 
     name thorax
     direction 0.0442465 0.999021 7.47603e-005   
     length 1.97799   
     axis 0 0 0   XYZ
    dof rx ry rz
    limits (-20.0 45.0)
           (-30.0 30.0)
           (-30.0 30.0)
  end
  begin
     id 14 
     name lowerneck
     direction 0.00312169 0.984641 0.174564   
     length 1.78995   
     axis 0 0 0   XYZ
    dof rx ry rz
    limits (-20.0 45.0)
           (-30.0 30.0)
           (-30.0 30.0)
  end
  begin
     id 15 
     name upperneck
     direction -0.0383028 0.985255 -0.166749   
     length 1.83053   
     axis 0 0 0   XYZ
    dof rx ry rz
    limits (-20.0 45.0)
           (-30.0 30.0)
           (-30.0 30.0)
  end
  begin
     id 16
     name head
     direction -0.0129546 0.997059 -0.0755386  
     length 1.84088  
     axis 0 0 0   XYZ
    dof rx ry rz
    limits (-20.0 45.0)
           (-30.0 30.0)
           (-30.0 30.0)
  end
  begin
     id 17 
     name lclavicle
     direction 0.912857 0.370519 -0.171488  
     length 3.51279  
     axis 0 0 0   XYZ
    dof ry rz
    limits (-20.0 10.0)
           (0.0 20.0)
  end
  begin
     id 18 
     name lhumerus
     direction 1 -4.48962e-011 3.64361e-027   
     length 4.95663   
     axis 180 -30 -90   XYZ
    dof rx ry rz
    limits (-60.0 90.0)
           (-90.0 90.0)
           (-90.0 90.0)
  end
  begin
     id 19
     name lradius
     direction 1 -4.48974e-011 5.97202e-027   
     length 3.38177   
     axis 180 -30 -90   XYZ
    dof rx
    limits (-10.0 170.0)
  end
  begin
     id 20
     name lwrist
     direction 1 -4.4896e-011 9.83288e-027   
     length 1.69088   
     axis -9.31221e-015 90 90   XYZ
    dof ry
    limits (-180.0 0.0)
 end
  begin
     id 21 
     name lhand
     direction 1 -4.4902e-011 1.96551e-026   
     length 0.662909   
     axis -1.25475e-014 90 90   XYZ
    dof rx rz
    limits (-90.0 90.0)
           (-45.0 45.0)
  end
  begin
     id 22 
     name lfingers
     direction 1 -4.48971e-011 3.93277e-026   
     length 0.534454   
     axis -2.50945e-014 90 90   XYZ
    dof rx
    limits (0.0 90.0)
  end
  begin
     id 23
     name lthumb
     direction 0.707107 -6.34933e-011 0.707107   
     length 0.767373   
     axis -90 45 -4.80359e-014   XYZ
    dof rx rz
    limits (-45.0 45.0)
           (-45.0 45.0)
  end
  begin
     id 24 
     name rclavicle
     direction -0.900919 0.395364 -0.178976   
     length 3.40627  
     axis 0 0 0   XYZ 
    dof ry rz
    limits (-10.0 20.0)
           (-20.0 0.0)
  end
  begin
     id 25 
     name rhumerus
     direction -1 -4.48969e-011 1.03875e-027  
     length 5.08365   
     axis 180 30 90   XYZ
    dof rx ry rz
    limits (-90.0 60.0)
           (-90.0 90.0)
           (-90.0 90.0)
  end
  begin
     id 26 
     name rradius
     direction -1 -4.48951e-011 5.02733e-027   
     length 3.35984   
     axis 180 30 90   XYZ
    dof rx
    limits (-10.0 170.0)
  end
  begin
     id 27 
     name rwrist
     direction -1 -4.49011e-011 9.82828e-027   
     length 1.67992   
     axis -9.31221e-015 -90 -90   XYZ
    dof ry
    limits (-180.0 0.0)
  end
  begin
     id 28
     name rhand
     direction -1 -4.48894e-011 1.96774e-026   
     length 0.820764   
     axis -1.25475e-014 -90 -90   XYZ
    dof rx rz
    limits (-90.0 90.0)
           (-45.0 45.0)
  end
  begin
     id 29
     name rfingers
     direction -1 -4.49095e-011 3.92833e-026   
     length 0.661721   
     axis -2.50945e-014 -90 -90   XYZ
    dof rx
    limits (0.0 90.0)
  end
  begin
     id 30
     name rthumb
     direction -0.707107 -6.34881e-011 0.707107   
     length 0.950103   
     axis -90 -45 4.80359e-014   XYZ
    dof rx rz
    limits (-45.0 45.0)
           (-45.0 45.0)
  end
:hierarchy
  begin
    root lhipjoint rhipjoint lowerback
    lhipjoint lfemur
    lfemur ltibia
    ltibia lfoot
    lfoot ltoes
    rhipjoint rfemur
    rfemur rtibia
    rtibia rfoot
    rfoot rtoes
    lowerback upperback
    upperback thorax
    thorax lowerneck lclavicle rclavicle
    lowerneck upperneck
    upperneck head
    lclavicle lhumerus
    lhumerus lradius
    lradius lwrist
    lwrist lhand lthumb
    lhand lfingers
    rclavicle rhumerus
    rhumerus rradius
    rradius rwrist
    rwrist rhand rthumb
    rhand rfingers
  end

#!OML:ASF I:\golf\golf\golf 2\Subject 1\2002-09-07\Subject1.ASF
:FULLY-SPECIFIED
:DEGREES
76
root -6.39908 17.7585 0.426243 -24.0853 81.9182 -39.7774
lowerback 2.94516 2.50984 -3.87925
upperback 3.58713 3.33212 3.55103
thorax 1.62248 1.57953 5.79864
lowerneck -17.5433 0.176924 0.401222
upperneck 40.0613 3.43915 -3.38572
head 17.9343 1.46995 -0.793743
rclavicle -1.19271e-015 -1.63003e-014
rhumerus -10.8713 4.73816 -103.168
rradius 35.1623
rwrist -54.1418
rhand -31.5952 -12.603
rfingers 7.12502
rthumb -4.85792 -42.5273
lclavicle -1.19271e-015 -1.63003e-014
lhumerus 0.509636 -75.8662 95.3287
lradius 28.0904
lwrist 52.5042
lhand 1.93635 67.1914
lfingers 7.12502
lthumb -152.556 84.7878
rfemur -32.4011 3.95993 13.5261
rtibia 30.9582
rfoot -9.61903 -6.71703
rtoes 1.59529
lfemur -26.1891 10.6325 -6.47458
ltibia 29.0311
lfoot -11.8359 3.17389
ltoes -25.9466
77
root -6.40248 17.7612 0.449159 -21.9839 81.3164 -37.6047
lowerback 2.96018 2.43678 -4.23294
upperback 3.67686 3.22888 3.48432
thorax 1.70709 1.51597 5.93538
lowerneck -17.4634 0.521331 0.543855
upperneck 39.8274 3.95114 -3.57588
head 17.8073 1.66124 -0.807006
rclavicle 1.21259e-014 -6.16232e-015
rhumerus -11.0285 4.82402 -103.085
rradius 36.0024
rwrist -55.1254
rhand -31.2937 -13.7353
rfingers 7.12502
rthumb -4.56673 -43.6661
lclavicle 1.21259e-014 -6.16232e-015
lhumerus 2.87136 -76.7413 92.8851
lradius 28.1798
lwrist 52.1632
lhand 3.03776 67.4565
lfingers 7.12502
lthumb -151.503 84.6943
rfemur -32.4391 4.08286 13.7348
rtibia 30.8505
rfoot -9.58009 -6.10152
rtoes 2.35856
lfemur -25.8845 10.6504 -6.2806
ltibia 29.0291
lfoot -11.7235 3.95753
ltoes -26.6675
78
root -6.4077 17.7585 0.472454 -21.0571 80.7082 -36.6678
lowerback 2.95781 2.27679 -4.47001
upperback 3.74155 3.01227 3.47231
thorax 1.79489 1.39788 6.06657
lowerneck -17.477 0.893781 0.611854
upperneck 39.6891 4.52447 -3.71573
head 17.7623 1.8714 -0.771614
rclavicle -1.44119e-014 -2.92213e-014
rhumerus -11.1842 4.84544 -102.947
rradius 36.7473
rwrist -56.1375
rhand -31.8469 -14.1327
rfingers 7.12502
rthumb -5.10087 -44.0513
lclavicle -1.44119e-014 -2.92213e-014
lhumerus 5.38095 -77.4999 90.2583
lradius 28.4021
lwrist 51.9153
lhand 3.83031 67.563
lfingers 7.12502
lthumb -150.746 84.7171
rfemur -32.5139 4.18922 14.0903
rtibia 30.7038
rfoot -9.37646 -5.53271
rtoes 1.16457
lfemur -25.6265 10.471 -5.88276
ltibia 29.0519
lfoot -11.6404 4.75839
ltoes -27.024
79
root -6.41259 17.7548 0.496594 -20.1687 79.9997 -35.851
lowerback 2.911 2.15042 -4.64196
upperback 3.75961 2.84181 3.43796
thorax 1.85802 1.30563 6.13593
lowerneck -17.5563 1.21957 0.614748
upperneck 39.641 5.02302 -3.7602
head 17.7785 2.05453 -0.694891
rclavicle -5.81445e-015 1.59028e-015
rhumerus -11.3451 4.67857 -102.797
rradius 37.4731
rwrist -56.6297
rhand -32.6588 -14.2983
rfingers 7.12502
rthumb -5.88477 -44.1966
lclavicle -5.81445e-015 1.59028e-015
lhumerus 7.92353 -78.2355 87.6377
lradius 28.6471
lwrist 51.7692
lhand 4.12385 67.2335
lfingers 7.12502
lthumb -150.466 85.0958
rfemur -32.6673 4.21729 14.5368
rtibia 30.5337
rfoot -9.07441 -4.78975
rtoes -1.36493
lfemur -25.4193 10.3965 -5.43595
ltibia 29.0922
lfoot -11.599 5.51643
ltoes -27.2851
80
root -6.41942 17.7514 0.504382 -19.411 79.4643 -35.086
lowerback 3.09343 1.9876 -4.5765
upperback 3.73992 2.61781 3.28059
thorax 1.7756 1.19852 5.93073
lowerneck -17.4932 1.51982 0.700043
upperneck 39.4711 5.44412 -3.83386
head 17.6886 2.21841 -0.662797
rclavicle -1.78021e-014 2.55842e-014
rhumerus -11.526 4.44428 -102.688
rradius 38.2718
rwrist -56.9108
rhand -33.4967 -14.7059
rfingers 7.12502
rthumb -6.69368 -44.5801
lclavicle -1.78021e-014 2.55842e-014
lhumerus 10.832 -79.1823 84.7352
lradius 28.8013
lwrist 51.7768
lhand 4.07167 67.4905
lfingers 7.12502
lthumb -150.516 84.83
rfemur -32.7278 4.01248 14.8741
rtibia 30.3644
rfoot -8.91676 -3.93277
rtoes -2.51226
lfemur -25.2203 10.1343 -5.11816
ltibia 29.1461
lfoot -11.5688 6.29633
ltoes -26.7787
81
root -6.42208 17.7515 0.532483 -18.1981 78.5025 -33.8852
lowerback 3.11016 1.94399 -4.73849
upperback 3.71255 2.55395 3.1265
thorax 1.74688 1.16438 5.86131
lowerneck -17.2669 1.86853 0.915069
upperneck 39.2068 5.8862 -3.92973
head 17.5108 2.41146 -0.662443
rclavicle 2.00276e-014 7.85199e-015
rhumerus -11.881 4.7293 -102.567
rradius 39.2938
rwrist -57.8619
rhand -34.6225 -14.9425
rfingers 7.12502
rthumb -7.78044 -44.7793
lclavicle 2.00276e-014 7.85199e-015
lhumerus 13.4275 -79.8676 82.202
lradius 28.7826
lwrist 51.2573
lhand 4.41737 67.9504
lfingers 7.12502
lthumb -150.186 84.4289
rfemur -32.8554 4.32008 15.2926
rtibia 30.2117
rfoot -8.87988 -3.15805
rtoes -1.42087
lfemur -24.8301 10.3721 -4.67351
ltibia 29.1934
lfoot -11.6564 7.00241
ltoes -26.4908
82
root -6.42343 17.7531 0.573498 -16.6802 77.2494 -32.4623
lowerback 2.9271 1.99122 -5.0467
upperback 3.68484 2.61628 2.93978
thorax 1.80861 1.18708 5.84521
lowerneck -17.1137 2.23679 1.19377
upperneck 39.0301 6.32251 -3.96455
head 17.4031 2.6186 -0.646762
rclavicle -2.15681e-014 2.62396e-014
rhumerus -12.342 5.34194 -102.374
rradius 40.5664
rwrist -59.3557
rhand -35.9127 -15.3395
rfingers 7.12502
rthumb -9.02556 -45.1264
lclavicle -2.15681e-014 2.62396e-014
lhumerus 16.1653 -80.4603 79.483
lradius 28.8346
lwrist 50.7399
lhand 4.77958 67.677
lfingers 7.12502
lthumb -149.84 84.7648
rfemur -33.1001 4.76544 15.7983
rtibia 30.0533
rfoot -8.7521 -2.24314
rtoes 0.000411253
lfemur -24.3833 10.9492 -4.18157
ltibia 29.2185
lfoot -11.75 7.62163
ltoes -26.5082
83
root -6.42796 17.7541 0.60749 -15.642 76.1411 -31.6856
lowerback 2.61706 1.9557 -5.19616
upperback 3.62506 2.5766 2.75404
thorax 1.92796 1.16079 5.74646
lowerneck -17.0648 2.60379 1.43654
upperneck 38.933 6.78936 -4.01339
head 17.3706 2.82811 -0.623585
rclavicle -2.98177e-015 2.42517e-014
rhumerus -12.6671 5.43978 -102.19
rradius 41.7408
rwrist -60.4226
rhand -37.1552 -15.53
rfingers 7.12502
rthumb -10.2244 -45.2615
lclavicle -2.98177e-015 2.42517e-014
lhumerus 21.0289 -81.3676 74.6103
lradius 29.0311
lwrist 50.7387
lhand 4.91732 66.7783
lfingers 7.12502
lthumb -149.709 85.6875
rfemur -33.5038 4.87281 16.3857
rtibia 29.882
rfoot -8.54113 -1.14732
rtoes 0.763069
lfemur -24.1821 11.3908 -3.68732
ltibia 29.2208
lfoot -11.7974 8.20915
ltoes -26.2338
84
root -6.43262 17.754 0.631484 -15.3153 75.0496 -31.167
lowerback 2.80163 1.83026 -5.29709
upperback 3.71796 2.40258 2.65062
thorax 1.94576 1.06987 5.69477
lowerneck -17.0298 3.0705 1.60413
upperneck 38.7866 7.45163 -4.12273
head 17.3273 3.09493 -0.575942
rclavicle 3.91606e-014 -8.74653e-015
rhumerus -12.774 5.11322 -102.095
rradius 42.5701
rwrist -60.7494
rhand -38.0984 -15.4026
rfingers 7.12502
rthumb -11.1342 -45.0872
lclavicle 3.91606e-014 -8.74653e-015
lhumerus 26.1824 -81.804 69.551
lradius 29.0695
lwrist 50.0852
lhand 5.74257 66.1211
lfingers 7.12502
lthumb -148.922 86.4923
rfemur -33.3756 4.93647 17.0327
rtibia 29.6795
rfoot -8.42168 -0.185964
rtoes 1.33273
lfemur -23.4876 11.5625 -3.09298
ltibia 29.2318
lfoot -11.9202 8.94398
ltoes -25.7893
85
root -6.43281 17.7524 0.667901 -14.8304 73.9357 -30.7558
lowerback 2.53633 1.66263 -5.47194
upperback 3.75557 2.18981 2.50416
thorax 2.16312 0.951249 5.65494
lowerneck -16.8855 3.5848 1.82197
upperneck 38.5663 8.12175 -4.15179
head 17.2148 3.38659 -0.502571
rclavicle 1.23246e-014 -4.77083e-015
rhumerus -12.8727 4.79103 -102.096
rradius 43.392
rwrist -61.0232
rhand -39.1066 -15.3649
rfingers 7.12502
rthumb -12.1065 -44.9947
lclavicle 1.23246e-014 -4.77083e-015
lhumerus 30.8096 -82.0692 64.9649
lradius 29.1254
lwrist 49.3569
lhand 6.71706 68.2953
lfingers 7.12502
lthumb -147.994 84.5
rfemur -33.4707 5.24031 17.6561
rtibia 29.4664
rfoot -8.35559 0.325932
rtoes 1.49952
lfemur -23.0357 11.9728 -2.51894
ltibia 29.2549
lfoot -11.9946 9.54568
ltoes -25.4975
